<?xml version="1.0" standalone="no"?><!DOCTYPE svg PUBLIC "-//W3C//DTD SVG 1.1//EN" "http://www.w3.org/Graphics/SVG/1.1/DTD/svg11.dtd"><svg t="1597314944075" class="icon" viewBox="0 0 1024 1024" version="1.1" xmlns="http://www.w3.org/2000/svg" p-id="1685" xmlns:xlink="http://www.w3.org/1999/xlink" width="32" height="32"><defs><style type="text/css"></style></defs><path d="M880.1 175.9H166.3c-53.8 0-97.5 43.7-97.5 97.5v429.2c0 53.8 43.7 97.5 97.5 97.5h334.9v98.3h-95.9c-12.2 0-22 9.8-22 22s9.8 22 22 22h235.8c12.2 0 22.1-9.8 22.1-22s-9.8-22-22-22h-96v-98.3h334.9c53.8 0 97.5-43.8 97.5-97.5V273.4c0-53.8-43.7-97.5-97.5-97.5z m53.5 526.7c0 14.3-5.6 27.7-15.7 37.8-10.1 10.1-23.5 15.7-37.8 15.7H166.3c-14.2 0-27.7-5.6-37.8-15.7-10.1-10.2-15.7-23.6-15.7-37.8V273.4c0-29.5 24-53.5 53.5-53.5h713.8c14.2 0 27.7 5.6 37.8 15.7 10.1 10.2 15.7 23.6 15.7 37.8v429.2z" p-id="1686" fill="#DFDFDF"></path><path d="M790.4 424.2L640.7 514c-20.2 12.2-46.1 10.4-64.5-4.3l-104.8-83.8c-17.8-14.2-40.1-22-62.9-22s-45.1 7.8-62.9 22l-147.4 118c-9.5 7.6-11 21.4-3.4 30.9 4.4 5.5 10.7 8.3 17.2 8.3 4.8 0 9.7-1.6 13.9-4.9l147.4-118c20.8-16.7 49.9-16.7 70.7 0L548.8 544c32.6 26.1 78.7 29.2 114.6 7.7l149.7-89.8c10.4-6.3 13.8-19.8 7.5-30.2-6.3-10.4-19.8-13.7-30.2-7.5z" p-id="1687" fill="#DFDFDF"></path></svg>